inDegrees=yes
name=ik_data
DataType=double
version=3
OpenSimVersion=4.5
endheader
time	pelvis_tilt	pelvis_list	pelvis_rotation	pelvis_tx	pelvis_ty	pelvis_tz	hip_flexion_r	hip_adduction_r	hip_rotation_r	knee_angle_r	ankle_angle_r	subtalar_angle_r	mtp_angle_r	hip_flexion_l	hip_adduction_l	hip_rotation_l	knee_angle_l	ankle_angle_l	subtalar_angle_l	mtp_angle_l	lumbar_extension	lumbar_bending	lumbar_rotation
0	9.575450813061425e-13	1.122748102270363e-12	30.07225199727059	0	0.95	0	1.137951870368909e-12	3.794302737768184e-13	1.08638125971539e-05	6.326006683540111e-13	0	0	0	0	0	0	0	0	0	0	0	0	0
0.137	0.0504936813536333	0.01597300804631566	30.02300464556772	0	0.95	0	-0.05009075689540697	0.9323684115358948	0.02497892487857683	-3.381328987719624	0	0	0	0	0	0	0	0	0	0	0	0	0
0.262	0.02651111206378228	0.01503670476869298	29.86956793312628	0	0.95	0	-0.03301241751127972	0.5958265869494854	0.1992498224861017	-2.14783124136998	0	0	0	0	0	0	0	0	0	0	0	0	0
0.4	0.01360344240311276	0.003216460114050519	29.91337403229703	0	0.95	0	-0.02327175121074902	0.7433660086871956	0.1314605926950164	-2.715442556412409	0	0	0	0	0	0	0	0	0	0	0	0	0
0.525	0.08832002794599791	0.03880837169839108	29.97502186131531	0	0.95	0	-0.08364061094458571	0.3982792037171292	0.08885833745958296	-1.573198168562007	0	0	0	0	0	0	0	0	0	0	0	0	0
0.649	-0.09042282618763772	-0.03482169907225027	29.92097000781456	0	0.95	0	0.1204736889969769	0.3089056719867784	0.2059458614707351	-1.53337260061229	0	0	0	0	0	0	0	0	0	0	0	0	0
0.787	-0.1680230303941483	-0.06569993487233841	29.96236404513705	0	0.95	0	0.2035244287266427	-0.4025134358555221	0.1969198637515512	1.175124963580348	0	0	0	0	0	0	0	0	0	0	0	0	0
0.912	-0.4253313537374571	-0.1740829312987909	30.07438610112849	0	0.95	0	0.4939397463582509	-0.3178849817403448	0.1553875522740883	0.6067698246422417	0	0	0	0	0	0	0	0	0	0	0	0	0
1.062	-0.4022468550677497	-0.1654992902710999	30.030630902263	0	0.95	0	0.4569695097194635	-0.2176842028857413	0.166687895116876	0.3298984790437965	0	0	0	0	0	0	0	0	0	0	0	0	0
1.174	-0.4770247157479774	-0.1953852374192102	29.96199673873764	0	0.95	0	0.5411454669306367	0.09857728439916665	0.1804977888000338	-0.9054541865920196	0	0	0	0	0	0	0	0	0	0	0	0	0
1.3	-0.3217732434261686	-0.1389627552604548	29.89885907116755	0	0.95	0	0.3464476836339828	1.306708535773633	0.0803517104559229	-5.089230427047864	0	0	0	0	0	0	0	0	0	0	0	0	0
1.437	-0.5200304353814527	-0.2063109027772811	29.8525064818613	0	0.95	0	0.5781233248061667	0.6677123708446296	0.09990763344631	-3.04916460357266	0	0	0	0	0	0	0	0	0	0	0	0	0
1.562	-0.6840590198281444	-0.2740776778944801	29.95171190197692	0	0.95	0	0.7772051803311217	0.2721380511847632	-0.03461780348901117	-1.802384464777205	0	0	0	0	0	0	0	0	0	0	0	0	0
1.7	-0.7443712301982743	-0.2929562093995539	29.70873311793022	0	0.95	0	0.822183244874701	-0.6350969757508578	0.1215987566267313	1.654743489325488	0	0	0	0	0	0	0	0	0	0	0	0	0
1.824	-0.01645969569245671	0.004899640456450049	29.75937268467407	0	0.95	0	0.07398417207483125	-2.057010533611661	0.05575557969542823	7.091407040453985	0	0	0	0	0	0	0	0	0	0	0	0	0
1.949	1.472560464891548	0.558436844863164	29.28533043090231	0	0.95	0	-1.478405918069821	2.670700242188458	0.1937385056209036	-9.971568417660711	0	0	0	0	0	0	0	0	0	0	0	0	0
2.087	1.170057193690015	0.4640201166419597	29.21441373997713	0	0.95	0	-1.224618967767456	0.9454684739164272	1.161430303399083	-3.228861418393565	0	0	0	0	0	0	0	0	0	0	0	0	0
2.213	1.285029807958008	0.5094615293804285	29.22686531562897	0	0.95	0	-1.363055890955578	-0.2434524294149447	1.079010028692094	1.609784748972476	0	0	0	0	0	0	0	0	0	0	0	0	0
2.35	3.555600800550034	1.305049287566906	28.48724457230009	0	0.95	0	-3.678065322976391	4.175368997644193	1.432990731983016	-14.98885540540219	0	0	0	0	0	0	0	0	0	0	0	0	0
2.475	3.430965839927238	1.266749033742301	28.08285694847838	0	0.95	0	-3.214359290121691	1.456533009258417	2.113583484928275	-8.077041109262089	0	0	0	0	0	0	0	0	0	0	0	0	0
2.6	-0.248372963098982	-0.0908302463373227	28.03317063732241	0	0.95	0	0.7861332991425816	-1.153785819546564	2.356590690417918	-1.650069943138748	0	0	0	0	0	0	0	0	0	0	0	0	0
2.737	-2.009233731774368	-0.7072570138057358	27.3295470418556	0	0.95	0	2.638148681574732	-2.382202906605413	2.929532638781554	1.823965863497138	0	0	0	0	0	0	0	0	0	0	0	0	0
2.862	-4.144395349308594	-1.389655373310295	26.43065736976591	0	0.95	0	4.803006211440064	-1.396659292598913	2.80428542085272	-3.090335685398593	0	0	0	0	0	0	0	0	0	0	0	0	0
3	-5.549133434787782	-1.751504957291818	25.24992171387225	0	0.95	0	6.270427655627679	1.877195733213894	3.591200178692193	-17.58586087897731	0	0	0	0	0	0	0	0	0	0	0	0	0
3.125	-10.89301619163222	-3.256142539260219	24.35976968551479	0	0.95	0	11.98962957802375	5.303830860641377	1.574222371719	-35.61561680011608	0	0	0	0	0	0	0	0	0	0	0	0	0
3.25	-18.24619366880204	-4.851461686350135	22.36207082439361	0	0.95	0	19.79156254962646	6.700770018343815	0.05978101461156825	-49.528025445654	0	0	0	0	0	0	0	0	0	0	0	0	0
3.387	-23.11745579280512	-5.596487624746857	20.84580681558097	0	0.95	0	24.99227506419063	7.473230608896496	-1.352985845127298	-59.84459566511784	0	0	0	0	0	0	0	0	0	0	0	0	0
3.512	-29.34725769121563	-6.567386625945123	19.47845133538855	0	0.95	0	31.55634593141366	7.121456383306444	-2.732449840235411	-64.09233684181716	0	0	0	0	0	0	0	0	0	0	0	0	0
3.649	-32.36080480656797	-6.830421817163097	18.60822187820691	0	0.95	0	34.5334305350979	6.724605148204067	-2.609061173404677	-62.15250254877007	0	0	0	0	0	0	0	0	0	0	0	0	0
3.775	-35.2798728681133	-7.277887667637031	18.13507928505199	0	0.95	0	37.11067542992362	4.342273785169212	-0.2978178335928449	-50.00310563640495	0	0	0	0	0	0	0	0	0	0	0	0	0
3.9	-37.58836261780868	-7.620873844788457	17.73315353376784	0	0.95	0	41.23734375738562	7.336313999519517	-10.49676431266508	-98.26664343083034	0	0	0	0	0	0	0	0	0	0	0	0	0
4.037	-38.07662429393621	-7.672175334862994	17.6285949357471	0	0.95	0	41.06851391446038	7.3437694870371	-5.077248352825951	-80.39255137488011	0	0	0	0	0	0	0	0	0	0	0	0	0
4.163	-39.01356908833199	-7.830471932391243	17.51520080907953	0	0.95	0	42.75350767240273	5.383060793893184	-13.96191756576827	-123.8189884598972	0	0	0	0	0	0	0	0	0	0	0	0	0
4.3	-39.82751745367753	-7.929979384001503	17.3653387798199	0	0.95	0	41.96698093670133	-1.283766780284253	-17.49345172196413	-159.6459133140769	0	0	0	0	0	0	0	0	0	0	0	0	0
4.425	-39.86663957379012	-7.942416573994979	17.36740197694666	0	0.95	0	39.6540027668297	-8.521189402328558	-16.35089491841189	-189.2934867275753	0	0	0	0	0	0	0	0	0	0	0	0	0
4.55	-38.88212604704341	-7.832399472780142	17.56395304187603	0	0.95	0	36.95410958421967	-14.58400689965189	-12.35840775196006	-215.0351076772147	0	0	0	0	0	0	0	0	0	0	0	0	0
4.688	-37.90387714651681	-7.657173736749067	17.70877154071507	0	0.95	0	35.3657976279754	-18.58600047843517	-6.844105671453947	-237.2148424745982	0	0	0	0	0	0	0	0	0	0	0	0	0
4.812	-37.7145023654947	-7.824182005603975	17.95677099823135	0	0.95	0	35.35330979539774	-20.54164301531127	-2.42003804266241	-257.7734128492762	0	0	0	0	0	0	0	0	0	0	0	0	0
4.95	-37.64797513855773	-7.972721188584619	18.16373091152494	0	0.95	0	37.92250836628781	-6.397668618023146	12.30653943486537	-357.2000538969653	0	0	0	0	0	0	0	0	0	0	0	0	0
5.075	-38.26510181078559	-8.083300897451771	18.07257837218019	0	0.95	0	39.20576935977768	1.187497815631029	8.969422136933966	-389.5192030262814	0	0	0	0	0	0	0	0	0	0	0	0	0
5.2	-37.95122319191618	-7.94466022588063	17.99222053327457	0	0.95	0	39.62661413535452	5.482244711641966	5.239841844942363	-410.7952380941624	0	0	0	0	0	0	0	0	0	0	0	0	0
5.338	-39.65410272633456	-8.304931192510189	17.86135434548158	0	0.95	0	42.28990655423985	7.76854087522109	-0.02321951809132227	-429.8781661002885	0	0	0	0	0	0	0	0	0	0	0	0	0
5.462	-42.16107644512507	-8.450851970381564	17.20059085983355	0	0.95	0	45.42193028523409	8.528416745732608	-4.353404187390409	-443.7240652969762	0	0	0	0	0	0	0	0	0	0	0	0	0
5.6	-43.25852205800955	-8.808298008971992	17.21488202618171	0	0.95	0	46.61650230242336	8.329922082434225	-4.873281959397899	-439.2471977675393	0	0	0	0	0	0	0	0	0	0	0	0	0
5.725	-43.37099159568642	-8.760718658914774	17.12124407998864	0	0.95	0	46.33369594197767	7.969633644485958	-2.967900216567907	-430.9356036766507	0	0	0	0	0	0	0	0	0	0	0	0	0
5.85	-41.34058559365084	-8.558026408498236	17.56925404225883	0	0.95	0	43.92899906371395	7.380565320812477	-0.7490118114748252	-423.0349864832216	0	0	0	0	0	0	0	0	0	0	0	0	0
5.988	-39.8809351502079	-8.369434936499612	17.85578166929422	0	0.95	0	43.81882687714735	8.1470147683479	-11.64934850351063	-474.5431350483382	0	0	0	0	0	0	0	0	0	0	0	0	0
6.113	-38.73095564792003	-8.283789713784447	18.15646682336007	0	0.95	0	41.05045033887814	1.175179897179816	-17.06707953803172	-516.1670558710359	0	0	0	0	0	0	0	0	0	0	0	0	0
6.262	-37.64232661251283	-8.170406544930918	18.41290853142143	0	0.95	0	37.18211236702395	-7.411260980163053	-16.4754096855462	-550.9068950489375	0	0	0	0	0	0	0	0	0	0	0	0	0
6.388	-36.11016766365697	-7.960711691438846	18.72387627259919	0	0.95	0	33.90691230727477	-14.23143921930928	-11.99791109399369	-580.4412523090703	0	0	0	0	0	0	0	0	0	0	0	0	0
6.5	-35.76791050321973	-7.914815660378512	18.79442409399248	0	0.95	0	33.28757211022028	-18.20551053014293	-5.671878967119687	-607.6386030518477	0	0	0	0	0	0	0	0	0	0	0	0	0
6.637	-34.31821593248475	-7.608232554655967	18.95012621530946	0	0.95	0	32.50511415762229	-18.89230015784701	0.1206853138483327	-634.049795350081	0	0	0	0	0	0	0	0	0	0	0	0	0
6.762	-33.47394278127819	-7.473423076137229	19.11955308832923	0	0.95	0	34.36525745900647	1.333266195673317	9.597859856671398	-743.439249616127	0	0	0	0	0	0	0	0	0	0	0	0	0
6.9	-34.53707282319816	-7.804419551619673	19.13097531961719	0	0.95	0	36.99873252520785	8.512468730121158	0.6856010058161109	-784.3078193951094	0	0	0	0	0	0	0	0	0	0	0	0	0
7.025	-33.97485785703535	-7.358827377209847	18.73274808198498	0	0.95	0	37.15259368037049	10.04621504545717	-4.974905707778031	-806.4033040799353	0	0	0	0	0	0	0	0	0	0	0	0	0
7.15	-34.23384070515424	-7.284490020388327	18.5407604804019	0	0.95	0	37.95297006896143	9.315504141154777	-10.97879591421601	-828.8006697922259	0	0	0	0	0	0	0	0	0	0	0	0	0
7.287	-34.38912062838698	-7.262528920928031	18.46483212757604	0	0.95	0	38.04845588915556	7.5524886808097	-15.19149336261222	-844.5699849257476	0	0	0	0	0	0	0	0	0	0	0	0	0
7.413	-34.97091506551894	-7.421276099290907	18.45944981099333	0	0.95	0	38.33781277277121	5.457999753623525	-18.94390676704858	-857.2585271541326	0	0	0	0	0	0	0	0	0	0	0	0	0
7.549	-36.04637564790195	-7.557080566671029	18.18328602825984	0	0.95	0	39.96540645722905	7.165532779476236	-17.90372249942542	-844.916045081847	0	0	0	0	0	0	0	0	0	0	0	0	0
7.675	-35.08605159727952	-7.227310802792758	18.12427050935879	0	0.95	0	36.37479055666184	-1.158633990794144	-23.03547170426047	-887.9178398087184	0	0	0	0	0	0	0	0	0	0	0	0	0
7.8	-33.33121361936134	-6.926666941503262	18.36422727359698	0	0.95	0	31.520089391737	-9.850056770926667	-20.97613729284956	-925.5821908503544	0	0	0	0	0	0	0	0	0	0	0	0	0
7.937	-32.76172737132926	-6.837200005703781	18.45150659665379	0	0.95	0	29.74004173473368	-15.78583761102204	-14.16979601729927	-957.640312792656	0	0	0	0	0	0	0	0	0	0	0	0	0
8.061999999999999	-33.03388043734404	-6.827307520734782	18.35412139733373	0	0.95	0	30.57286758046566	-18.20099591211498	-5.24855332051385	-985.6929651805012	0	0	0	0	0	0	0	0	0	0	0	0	0
8.199999999999999	-33.04896333559506	-6.850364885076874	18.35842357722404	0	0.95	0	31.88114429525996	-17.43864327860729	3.540020557236367	-1009.872057738063	0	0	0	0	0	0	0	0	0	0	0	0	0
8.324999999999999	-33.20103749418433	-6.721393254524975	18.11053025329083	0	0.95	0	33.09584570751216	-14.64308021078936	10.88825840486244	-1031.754951681642	0	0	0	0	0	0	0	0	0	0	0	0	0
8.449999999999999	-33.86074628461913	-6.693316478995564	17.82394640375149	0	0.95	0	34.19428737010396	-10.79702035911322	15.27162560268246	-1051.647706480025	0	0	0	0	0	0	0	0	0	0	0	0	0
8.587999999999999	-34.72042446719295	-6.825524141650653	17.67789080953431	0	0.95	0	35.10759244277643	-7.184188907056066	16.57519374168603	-1067.737587750829	0	0	0	0	0	0	0	0	0	0	0	0	0
8.712	-33.75399271562938	-6.61289677706303	17.75382449633839	0	0.95	0	33.97643156237155	-11.06651067746053	13.45852403689489	-1050.100046714545	0	0	0	0	0	0	0	0	0	0	0	0	0
8.85	-34.59751640312704	-6.826274775091735	17.7442441158141	0	0.95	0	35.10960466675342	-0.2586595185246359	12.09220880968951	-1095.602088620696	0	0	0	0	0	0	0	0	0	0	0	0	0
